#Roads.008_36728_466.obj

v -609.0104 -65.6414 -6.91131
v -609.0104 -49.85063 -6.91131
v -594.3022 -49.85065 -6.91131
v -594.3022 -65.64137 -6.91131
v -401.1333 264.2081 -6.911296
v -386.1569 264.2081 -6.911296
v -386.1569 248.4174 -6.911297
v -401.1332 248.4174 -6.911297

vn 0 0.9995117 1.192093E-07
vn 0 0.9995117 1.192093E-07
vn 0 0.9995117 1.192093E-07
vn 0 0.9995117 1.192093E-07
vn 0 0.9995117 1.192093E-07
vn 0 0.9995117 1.192093E-07
vn 0 0.9995117 1.192093E-07
vn 0 0.9995117 1.192093E-07

vt 1.192093E-07 0.0078125
vt 0.9995117 0.0078125
vt 0.9995117 1
vt 0 1
vt 0 0.4892578
vt 0 1
vt 1 1
vt 1 0.4892578

g Roads.008_36728_466
usemtl Roads.008_36728_466
usemap Roads.008_36728_466
f 1/1/1 3/3/3 2/2/2
f 1/1/1 4/4/4 3/3/3
f 5/5/5 7/7/7 6/6/6
f 5/5/5 8/8/8 7/7/7
